STARTFONT 2.1
FONT -Fondu-ET Bembo Italic-Medium-R-Normal--13-120-75-75-P-66-MacRoman-1
SIZE 12 75 75
FONTBOUNDINGBOX 17 16 -3 -4
COMMENT Created by Fondu from a mac NFNT/FONT resource
STARTPROPERTIES 17
FOUNDRY "Fondu"
FAMILY_NAME "ET Bembo Italic"
WEIGHT_NAME "Medium"
SLANT "R"
SETWIDTH_NAME "Normal"
ADD_STYLE_NAME ""
PIXEL_SIZE 13
POINT_SIZE 120
RESOLUTION_X 75
RESOLUTION_Y 75
SPACING "P"
AVERAGE_WIDTH 66
CHARSET_REGISTRY "MacRoman"
CHARSET_ENCODING "1"
FONT_ASCENT 12
FONT_DESCENT 4
FACE_NAME "ET Bembo Italic"
ENDPROPERTIES
CHARS 205
STARTCHAR space
ENCODING 32
SWIDTH 255 0
DWIDTH 3 0
BBX 0 0 0 -4
BITMAP
ENDCHAR
STARTCHAR exclam
ENCODING 33
SWIDTH 297 0
DWIDTH 4 0
BBX 4 8 0 0
BITMAP
10
30
20
20
20
00
00
40
ENDCHAR
STARTCHAR quotedbl
ENCODING 34
SWIDTH 424 0
DWIDTH 6 0
BBX 5 4 2 4
BITMAP
50
D0
90
80
ENDCHAR
STARTCHAR numbersign
ENCODING 35
SWIDTH 680 0
DWIDTH 9 0
BBX 9 10 0 -1
BITMAP
1000
1200
1200
2E00
2200
2400
7F00
2400
4400
4400
ENDCHAR
STARTCHAR dollar
ENCODING 36
SWIDTH 472 0
DWIDTH 6 0
BBX 6 10 0 -1
BITMAP
08
3C
34
30
10
18
18
68
70
20
ENDCHAR
STARTCHAR percent
ENCODING 37
SWIDTH 731 0
DWIDTH 10 0
BBX 10 9 1 0
BITMAP
3000
5000
9200
9400
9B00
6A80
1480
1500
2300
ENDCHAR
STARTCHAR ampersand
ENCODING 38
SWIDTH 720 0
DWIDTH 9 0
BBX 10 8 1 0
BITMAP
3C00
4200
4080
3780
C900
8100
C200
7C00
ENDCHAR
STARTCHAR quotesingle
ENCODING 39
SWIDTH 223 0
DWIDTH 4 0
BBX 3 3 1 5
BITMAP
20
20
40
ENDCHAR
STARTCHAR parenleft
ENCODING 40
SWIDTH 306 0
DWIDTH 4 0
BBX 5 12 1 -3
BITMAP
10
20
20
40
40
40
80
80
80
80
80
40
ENDCHAR
STARTCHAR parenright
ENCODING 41
SWIDTH 286 0
DWIDTH 4 0
BBX 5 10 -1 -2
BITMAP
10
10
10
10
10
10
10
20
20
40
ENDCHAR
STARTCHAR asterisk
ENCODING 42
SWIDTH 557 0
DWIDTH 7 0
BBX 7 7 0 3
BITMAP
10
54
54
38
7C
54
10
ENDCHAR
STARTCHAR plus
ENCODING 43
SWIDTH 679 0
DWIDTH 9 0
BBX 9 8 0 0
BITMAP
0800
0800
0800
7F00
0800
0800
0800
0800
ENDCHAR
STARTCHAR comma
ENCODING 44
SWIDTH 257 0
DWIDTH 3 0
BBX 3 2 0 0
BITMAP
20
20
ENDCHAR
STARTCHAR hyphen
ENCODING 45
SWIDTH 363 0
DWIDTH 5 0
BBX 5 1 0 2
BITMAP
70
ENDCHAR
STARTCHAR period
ENCODING 46
SWIDTH 247 0
DWIDTH 3 0
BBX 2 1 1 0
BITMAP
80
ENDCHAR
STARTCHAR slash
ENCODING 47
SWIDTH 349 0
DWIDTH 5 0
BBX 6 9 -1 -1
BITMAP
04
08
08
10
10
20
20
40
40
ENDCHAR
STARTCHAR zero
ENCODING 48
SWIDTH 432 0
DWIDTH 6 0
BBX 6 6 0 0
BITMAP
18
28
48
48
50
60
ENDCHAR
STARTCHAR one
ENCODING 49
SWIDTH 380 0
DWIDTH 5 0
BBX 5 6 0 0
BITMAP
10
10
10
20
20
30
ENDCHAR
STARTCHAR two
ENCODING 50
SWIDTH 414 0
DWIDTH 5 0
BBX 6 6 0 0
BITMAP
38
48
08
30
48
70
ENDCHAR
STARTCHAR three
ENCODING 51
SWIDTH 427 0
DWIDTH 6 0
BBX 7 9 -1 -3
BITMAP
1C
24
04
08
04
04
04
08
70
ENDCHAR
STARTCHAR four
ENCODING 52
SWIDTH 448 0
DWIDTH 6 0
BBX 6 8 0 -3
BITMAP
08
18
28
48
7C
10
10
10
ENDCHAR
STARTCHAR five
ENCODING 53
SWIDTH 432 0
DWIDTH 6 0
BBX 6 8 0 -2
BITMAP
38
20
30
18
08
08
10
E0
ENDCHAR
STARTCHAR six
ENCODING 54
SWIDTH 463 0
DWIDTH 6 0
BBX 6 9 1 0
BITMAP
08
30
40
70
C8
88
88
90
60
ENDCHAR
STARTCHAR seven
ENCODING 55
SWIDTH 409 0
DWIDTH 5 0
BBX 6 8 0 -2
BITMAP
78
48
10
10
20
20
40
40
ENDCHAR
STARTCHAR eight
ENCODING 56
SWIDTH 463 0
DWIDTH 6 0
BBX 5 8 1 0
BITMAP
38
48
50
20
D0
90
90
60
ENDCHAR
STARTCHAR nine
ENCODING 57
SWIDTH 494 0
DWIDTH 6 0
BBX 6 9 0 -3
BITMAP
18
2C
44
44
4C
78
18
20
C0
ENDCHAR
STARTCHAR colon
ENCODING 58
SWIDTH 297 0
DWIDTH 4 0
BBX 3 6 1 0
BITMAP
20
00
00
00
40
40
ENDCHAR
STARTCHAR semicolon
ENCODING 59
SWIDTH 297 0
DWIDTH 4 0
BBX 3 8 0 -2
BITMAP
20
00
00
00
40
40
40
80
ENDCHAR
STARTCHAR less
ENCODING 60
SWIDTH 679 0
DWIDTH 9 0
BBX 8 7 0 0
BITMAP
01
06
38
40
30
0E
01
ENDCHAR
STARTCHAR equal
ENCODING 61
SWIDTH 679 0
DWIDTH 9 0
BBX 8 4 0 2
BITMAP
7F
00
00
7F
ENDCHAR
STARTCHAR greater
ENCODING 62
SWIDTH 679 0
DWIDTH 9 0
BBX 8 7 0 0
BITMAP
40
30
0E
03
0C
30
40
ENDCHAR
STARTCHAR question
ENCODING 63
SWIDTH 403 0
DWIDTH 5 0
BBX 5 8 0 0
BITMAP
30
08
08
18
30
40
40
40
ENDCHAR
STARTCHAR at
ENCODING 64
SWIDTH 933 0
DWIDTH 12 0
BBX 12 13 1 -3
BITMAP
0F00
30C0
6040
4720
8920
8920
9120
9240
9250
DFA0
4020
30C0
1F00
ENDCHAR
STARTCHAR A
ENCODING 65
SWIDTH 693 0
DWIDTH 9 0
BBX 10 8 -1 0
BITMAP
0100
0300
0500
0900
1F00
1100
2100
6380
ENDCHAR
STARTCHAR B
ENCODING 66
SWIDTH 646 0
DWIDTH 8 0
BBX 9 8 0 0
BITMAP
3F00
1100
1100
1E00
3300
2100
2100
7E00
ENDCHAR
STARTCHAR C
ENCODING 67
SWIDTH 712 0
DWIDTH 9 0
BBX 9 8 0 0
BITMAP
1F80
6080
4000
8000
8000
8100
4100
3E00
ENDCHAR
STARTCHAR D
ENCODING 68
SWIDTH 793 0
DWIDTH 10 0
BBX 10 8 0 0
BITMAP
3F00
1080
1040
3040
2040
2080
2180
FE00
ENDCHAR
STARTCHAR E
ENCODING 69
SWIDTH 662 0
DWIDTH 9 0
BBX 10 8 -1 0
BITMAP
1F80
0800
1800
1F00
1000
1000
1080
7F80
ENDCHAR
STARTCHAR F
ENCODING 70
SWIDTH 549 0
DWIDTH 7 0
BBX 8 8 0 0
BITMAP
3F
11
32
3E
22
20
20
F0
ENDCHAR
STARTCHAR G
ENCODING 71
SWIDTH 747 0
DWIDTH 10 0
BBX 10 8 0 0
BITMAP
1F80
2080
4000
4000
4000
4180
4100
3F00
ENDCHAR
STARTCHAR H
ENCODING 72
SWIDTH 773 0
DWIDTH 10 0
BBX 12 8 -1 0
BITMAP
1870
0840
1840
1FC0
10C0
10C0
3080
79C0
ENDCHAR
STARTCHAR I
ENCODING 73
SWIDTH 356 0
DWIDTH 5 0
BBX 6 8 0 0
BITMAP
18
10
10
30
20
20
20
70
ENDCHAR
STARTCHAR J
ENCODING 74
SWIDTH 338 0
DWIDTH 4 0
BBX 9 12 -3 -4
BITMAP
0700
0200
0600
0600
0400
0400
0400
0400
0C00
0800
0800
7000
ENDCHAR
STARTCHAR K
ENCODING 75
SWIDTH 710 0
DWIDTH 9 0
BBX 11 8 0 0
BITMAP
39C0
1200
3400
3800
2800
2400
2200
6380
ENDCHAR
STARTCHAR L
ENCODING 76
SWIDTH 603 0
DWIDTH 8 0
BBX 9 8 0 0
BITMAP
3800
1000
1000
3000
2000
2000
2100
FE00
ENDCHAR
STARTCHAR M
ENCODING 77
SWIDTH 883 0
DWIDTH 11 0
BBX 14 8 -1 0
BITMAP
0C18
1470
1470
14B0
1520
2520
2620
6260
ENDCHAR
STARTCHAR N
ENCODING 78
SWIDTH 790 0
DWIDTH 10 0
BBX 12 8 0 0
BITMAP
3060
1840
2840
2480
2680
4280
4180
4180
ENDCHAR
STARTCHAR O
ENCODING 79
SWIDTH 819 0
DWIDTH 11 0
BBX 9 8 1 0
BITMAP
1E00
6100
4080
8080
8080
8100
4300
3C00
ENDCHAR
STARTCHAR P
ENCODING 80
SWIDTH 564 0
DWIDTH 7 0
BBX 9 8 -1 0
BITMAP
3E00
1100
1100
3100
2600
2000
2000
6000
ENDCHAR
STARTCHAR Q
ENCODING 81
SWIDTH 798 0
DWIDTH 10 0
BBX 10 11 0 -3
BITMAP
0F00
3080
6040
4040
4040
4040
4080
2180
1E00
0600
01C0
ENDCHAR
STARTCHAR R
ENCODING 82
SWIDTH 644 0
DWIDTH 8 0
BBX 9 8 0 0
BITMAP
1E00
1100
1100
1200
3C00
2400
2600
6300
ENDCHAR
STARTCHAR S
ENCODING 83
SWIDTH 517 0
DWIDTH 7 0
BBX 7 8 0 0
BITMAP
1E
20
20
18
0C
04
84
78
ENDCHAR
STARTCHAR T
ENCODING 84
SWIDTH 664 0
DWIDTH 9 0
BBX 10 9 0 0
BITMAP
4000
7F80
4C00
0C00
0800
0800
0800
1800
3C00
ENDCHAR
STARTCHAR U
ENCODING 85
SWIDTH 748 0
DWIDTH 10 0
BBX 11 8 0 0
BITMAP
79C0
2080
2080
6080
6100
4100
6100
3600
ENDCHAR
STARTCHAR V
ENCODING 86
SWIDTH 607 0
DWIDTH 8 0
BBX 9 9 1 -1
BITMAP
6380
4200
4400
4400
4800
5000
6000
4000
4000
ENDCHAR
STARTCHAR W
ENCODING 87
SWIDTH 897 0
DWIDTH 12 0
BBX 13 8 0 0
BITMAP
7338
2220
2620
2A40
7280
7300
6300
4200
ENDCHAR
STARTCHAR X
ENCODING 88
SWIDTH 704 0
DWIDTH 9 0
BBX 12 8 -1 0
BITMAP
1C60
0C80
0500
0200
0600
0900
1180
21C0
ENDCHAR
STARTCHAR Y
ENCODING 89
SWIDTH 653 0
DWIDTH 8 0
BBX 9 8 1 0
BITMAP
6100
2200
2400
1800
1800
1000
1000
7800
ENDCHAR
STARTCHAR Z
ENCODING 90
SWIDTH 687 0
DWIDTH 9 0
BBX 10 8 0 0
BITMAP
1F80
2100
0600
0C00
1800
3000
6000
FF00
ENDCHAR
STARTCHAR bracketleft
ENCODING 91
SWIDTH 307 0
DWIDTH 4 0
BBX 6 12 0 -3
BITMAP
1C
10
10
20
20
20
20
20
40
40
40
60
ENDCHAR
STARTCHAR backslash
ENCODING 92
SWIDTH 223 0
DWIDTH 3 0
BBX 2 8 1 0
BITMAP
80
80
80
80
40
40
40
40
ENDCHAR
STARTCHAR bracketright
ENCODING 93
SWIDTH 307 0
DWIDTH 4 0
BBX 6 12 -1 -3
BITMAP
18
08
08
08
08
10
10
10
10
20
20
60
ENDCHAR
STARTCHAR asciicircum
ENCODING 94
SWIDTH 434 0
DWIDTH 6 0
BBX 7 5 0 4
BITMAP
10
30
28
44
44
ENDCHAR
STARTCHAR underscore
ENCODING 95
SWIDTH 509 0
DWIDTH 7 0
BBX 8 1 -1 -3
BITMAP
7F
ENDCHAR
STARTCHAR grave
ENCODING 96
SWIDTH 339 0
DWIDTH 4 0
BBX 3 3 2 5
BITMAP
40
40
40
ENDCHAR
STARTCHAR a
ENCODING 97
SWIDTH 420 0
DWIDTH 5 0
BBX 5 6 0 0
BITMAP
18
70
90
90
B8
D0
ENDCHAR
STARTCHAR b
ENCODING 98
SWIDTH 415 0
DWIDTH 5 0
BBX 6 10 0 0
BITMAP
20
20
20
20
58
68
48
48
50
60
ENDCHAR
STARTCHAR c
ENCODING 99
SWIDTH 320 0
DWIDTH 4 0
BBX 5 6 0 0
BITMAP
30
40
40
40
50
60
ENDCHAR
STARTCHAR d
ENCODING 100
SWIDTH 450 0
DWIDTH 6 0
BBX 6 10 1 0
BITMAP
08
08
08
08
38
50
90
90
B8
D0
ENDCHAR
STARTCHAR e
ENCODING 101
SWIDTH 364 0
DWIDTH 5 0
BBX 5 6 0 0
BITMAP
38
C8
B0
C0
80
70
ENDCHAR
STARTCHAR f
ENCODING 102
SWIDTH 283 0
DWIDTH 4 0
BBX 9 14 -3 -4
BITMAP
0380
0400
0400
0400
0E00
0800
0800
0800
0800
0800
0800
1000
1000
6000
ENDCHAR
STARTCHAR g
ENCODING 103
SWIDTH 398 0
DWIDTH 5 0
BBX 7 10 -1 -4
BITMAP
0C
34
24
24
28
30
30
58
84
48
ENDCHAR
STARTCHAR h
ENCODING 104
SWIDTH 457 0
DWIDTH 6 0
BBX 6 10 0 0
BITMAP
20
20
20
20
28
58
68
48
4C
48
ENDCHAR
STARTCHAR i
ENCODING 105
SWIDTH 258 0
DWIDTH 3 0
BBX 4 9 0 0
BITMAP
20
20
00
20
20
20
40
40
40
ENDCHAR
STARTCHAR j
ENCODING 106
SWIDTH 245 0
DWIDTH 3 0
BBX 6 12 -2 -4
BITMAP
08
08
00
18
08
10
10
10
10
20
20
C0
ENDCHAR
STARTCHAR k
ENCODING 107
SWIDTH 459 0
DWIDTH 6 0
BBX 6 10 0 0
BITMAP
20
20
20
20
2C
54
64
78
50
48
ENDCHAR
STARTCHAR l
ENCODING 108
SWIDTH 256 0
DWIDTH 3 0
BBX 4 10 0 0
BITMAP
20
20
20
20
20
40
40
40
40
40
ENDCHAR
STARTCHAR m
ENCODING 109
SWIDTH 681 0
DWIDTH 9 0
BBX 9 6 0 0
BITMAP
2B00
3D00
6900
4A00
4A00
4200
ENDCHAR
STARTCHAR n
ENCODING 110
SWIDTH 469 0
DWIDTH 6 0
BBX 6 6 0 0
BITMAP
28
58
68
48
4C
48
ENDCHAR
STARTCHAR o
ENCODING 111
SWIDTH 401 0
DWIDTH 5 0
BBX 4 6 1 0
BITMAP
30
D0
90
90
A0
C0
ENDCHAR
STARTCHAR p
ENCODING 112
SWIDTH 445 0
DWIDTH 6 0
BBX 7 10 -2 -4
BITMAP
16
3A
12
12
14
14
28
20
20
60
ENDCHAR
STARTCHAR q
ENCODING 113
SWIDTH 426 0
DWIDTH 6 0
BBX 5 9 1 -3
BITMAP
38
50
90
90
B0
D0
20
20
20
ENDCHAR
STARTCHAR r
ENCODING 114
SWIDTH 323 0
DWIDTH 4 0
BBX 5 6 0 0
BITMAP
50
60
60
40
40
40
ENDCHAR
STARTCHAR s
ENCODING 115
SWIDTH 320 0
DWIDTH 4 0
BBX 5 6 0 0
BITMAP
30
40
60
20
20
E0
ENDCHAR
STARTCHAR t
ENCODING 116
SWIDTH 294 0
DWIDTH 4 0
BBX 4 7 0 0
BITMAP
20
70
20
40
40
40
40
ENDCHAR
STARTCHAR u
ENCODING 117
SWIDTH 487 0
DWIDTH 6 0
BBX 7 6 0 0
BITMAP
24
24
48
58
6C
48
ENDCHAR
STARTCHAR v
ENCODING 118
SWIDTH 406 0
DWIDTH 5 0
BBX 6 6 0 0
BITMAP
48
48
48
50
60
40
ENDCHAR
STARTCHAR w
ENCODING 119
SWIDTH 610 0
DWIDTH 8 0
BBX 8 6 0 0
BITMAP
21
29
49
4A
5C
68
ENDCHAR
STARTCHAR x
ENCODING 120
SWIDTH 504 0
DWIDTH 7 0
BBX 8 6 -1 0
BITMAP
13
14
08
08
16
64
ENDCHAR
STARTCHAR y
ENCODING 121
SWIDTH 437 0
DWIDTH 6 0
BBX 7 10 -1 -4
BITMAP
24
54
14
18
10
10
10
20
20
60
ENDCHAR
STARTCHAR z
ENCODING 122
SWIDTH 488 0
DWIDTH 6 0
BBX 7 6 0 0
BITMAP
30
0C
18
60
64
98
ENDCHAR
STARTCHAR braceleft
ENCODING 123
SWIDTH 403 0
DWIDTH 5 0
BBX 5 12 0 -4
BITMAP
10
20
20
20
20
40
40
20
20
20
20
10
ENDCHAR
STARTCHAR bar
ENCODING 124
SWIDTH 519 0
DWIDTH 7 0
BBX 1 11 3 0
BITMAP
80
80
80
80
80
80
80
80
80
80
80
ENDCHAR
STARTCHAR braceright
ENCODING 125
SWIDTH 403 0
DWIDTH 5 0
BBX 5 11 0 -1
BITMAP
40
20
20
20
20
20
10
20
20
20
20
ENDCHAR
STARTCHAR asciitilde
ENCODING 126
SWIDTH 551 0
DWIDTH 7 0
BBX 7 2 1 3
BITMAP
70
9C
ENDCHAR
STARTCHAR Adieresis
ENCODING 128
SWIDTH 693 0
DWIDTH 9 0
BBX 10 10 -1 0
BITMAP
0140
0000
0100
0300
0500
0D80
0F80
1180
2180
6180
ENDCHAR
STARTCHAR Aring
ENCODING 129
SWIDTH 693 0
DWIDTH 9 0
BBX 11 12 -2 0
BITMAP
00C0
0120
00E0
0000
0180
0280
0280
0480
0F80
1080
2080
61C0
ENDCHAR
STARTCHAR Ccedilla
ENCODING 130
SWIDTH 712 0
DWIDTH 9 0
BBX 10 11 0 -3
BITMAP
1F80
2080
4080
8000
8000
8000
4100
3F00
0800
0800
3800
ENDCHAR
STARTCHAR Eacute
ENCODING 131
SWIDTH 662 0
DWIDTH 9 0
BBX 10 11 -1 0
BITMAP
0100
0000
0000
1F80
0800
1800
1F00
1000
1000
1080
7F80
ENDCHAR
STARTCHAR Ntilde
ENCODING 132
SWIDTH 790 0
DWIDTH 10 0
BBX 12 11 0 0
BITMAP
0780
0180
0000
3060
1840
2840
2480
2680
4280
4180
4180
ENDCHAR
STARTCHAR Odieresis
ENCODING 133
SWIDTH 819 0
DWIDTH 11 0
BBX 9 10 1 0
BITMAP
0A00
0000
1E00
6100
4080
8080
8080
8100
4100
3E00
ENDCHAR
STARTCHAR Udieresis
ENCODING 134
SWIDTH 748 0
DWIDTH 10 0
BBX 11 10 0 0
BITMAP
0500
0000
79C0
2080
2080
6080
6100
4100
6100
3600
ENDCHAR
STARTCHAR aacute
ENCODING 135
SWIDTH 420 0
DWIDTH 5 0
BBX 5 9 0 0
BITMAP
10
00
00
18
70
90
90
B8
D0
ENDCHAR
STARTCHAR agrave
ENCODING 136
SWIDTH 420 0
DWIDTH 5 0
BBX 5 8 0 0
BITMAP
10
10
18
70
90
90
B8
D0
ENDCHAR
STARTCHAR acircumflex
ENCODING 137
SWIDTH 420 0
DWIDTH 5 0
BBX 6 8 0 0
BITMAP
18
00
18
70
90
90
B8
D0
ENDCHAR
STARTCHAR adieresis
ENCODING 138
SWIDTH 420 0
DWIDTH 5 0
BBX 6 8 0 0
BITMAP
28
00
18
68
88
98
B0
D8
ENDCHAR
STARTCHAR atilde
ENCODING 139
SWIDTH 420 0
DWIDTH 5 0
BBX 6 9 0 0
BITMAP
04
34
58
18
70
90
90
B8
D0
ENDCHAR
STARTCHAR aring
ENCODING 140
SWIDTH 420 0
DWIDTH 5 0
BBX 6 9 0 0
BITMAP
18
18
18
18
68
50
90
98
E8
ENDCHAR
STARTCHAR ccedilla
ENCODING 141
SWIDTH 320 0
DWIDTH 4 0
BBX 4 8 1 -2
BITMAP
30
40
80
80
80
C0
40
40
ENDCHAR
STARTCHAR eacute
ENCODING 142
SWIDTH 364 0
DWIDTH 5 0
BBX 5 9 0 0
BITMAP
18
10
00
38
C8
B0
C0
80
70
ENDCHAR
STARTCHAR egrave
ENCODING 143
SWIDTH 364 0
DWIDTH 5 0
BBX 5 8 0 0
BITMAP
10
10
38
C8
B0
C0
80
70
ENDCHAR
STARTCHAR ecircumflex
ENCODING 144
SWIDTH 364 0
DWIDTH 5 0
BBX 6 8 0 0
BITMAP
18
24
38
C8
B0
C0
80
70
ENDCHAR
STARTCHAR edieresis
ENCODING 145
SWIDTH 364 0
DWIDTH 5 0
BBX 5 8 0 0
BITMAP
28
00
38
48
B0
C0
80
70
ENDCHAR
STARTCHAR iacute
ENCODING 146
SWIDTH 258 0
DWIDTH 3 0
BBX 4 9 0 0
BITMAP
10
20
00
20
20
40
40
40
40
ENDCHAR
STARTCHAR igrave
ENCODING 147
SWIDTH 258 0
DWIDTH 3 0
BBX 4 8 0 0
BITMAP
60
20
00
60
40
40
40
40
ENDCHAR
STARTCHAR icircumflex
ENCODING 148
SWIDTH 258 0
DWIDTH 3 0
BBX 4 8 0 0
BITMAP
30
50
00
60
40
40
40
40
ENDCHAR
STARTCHAR idieresis
ENCODING 149
SWIDTH 258 0
DWIDTH 3 0
BBX 4 8 0 0
BITMAP
50
00
20
20
40
40
40
40
ENDCHAR
STARTCHAR ntilde
ENCODING 150
SWIDTH 469 0
DWIDTH 6 0
BBX 7 8 0 0
BITMAP
34
1C
28
58
68
48
4C
48
ENDCHAR
STARTCHAR oacute
ENCODING 151
SWIDTH 401 0
DWIDTH 5 0
BBX 4 9 1 0
BITMAP
10
20
00
30
D0
90
90
A0
C0
ENDCHAR
STARTCHAR ograve
ENCODING 152
SWIDTH 401 0
DWIDTH 5 0
BBX 4 8 1 0
BITMAP
20
20
30
D0
90
90
A0
C0
ENDCHAR
STARTCHAR ocircumflex
ENCODING 153
SWIDTH 401 0
DWIDTH 5 0
BBX 5 8 1 0
BITMAP
30
00
30
D0
90
90
A0
C0
ENDCHAR
STARTCHAR odieresis
ENCODING 154
SWIDTH 401 0
DWIDTH 5 0
BBX 4 7 1 0
BITMAP
50
30
D0
90
90
A0
C0
ENDCHAR
STARTCHAR otilde
ENCODING 155
SWIDTH 401 0
DWIDTH 5 0
BBX 6 8 1 0
BITMAP
38
18
30
D0
90
90
A0
C0
ENDCHAR
STARTCHAR uacute
ENCODING 156
SWIDTH 487 0
DWIDTH 6 0
BBX 7 9 0 0
BITMAP
08
00
00
24
24
48
58
6C
48
ENDCHAR
STARTCHAR ugrave
ENCODING 157
SWIDTH 487 0
DWIDTH 6 0
BBX 7 8 0 0
BITMAP
10
10
24
24
48
58
6C
48
ENDCHAR
STARTCHAR ucircumflex
ENCODING 158
SWIDTH 487 0
DWIDTH 6 0
BBX 7 9 0 0
BITMAP
08
14
00
24
24
48
58
6C
48
ENDCHAR
STARTCHAR udieresis
ENCODING 159
SWIDTH 487 0
DWIDTH 6 0
BBX 6 8 0 0
BITMAP
24
00
44
C4
48
58
6C
48
ENDCHAR
STARTCHAR dagger
ENCODING 160
SWIDTH 487 0
DWIDTH 6 0
BBX 6 14 1 -4
BITMAP
10
10
10
20
F8
20
20
20
20
40
40
40
40
40
ENDCHAR
STARTCHAR degree
ENCODING 161
SWIDTH 403 0
DWIDTH 5 0
BBX 4 4 2 4
BITMAP
60
90
90
60
ENDCHAR
STARTCHAR cent
ENCODING 162
SWIDTH 276 0
DWIDTH 4 0
BBX 4 10 1 -2
BITMAP
20
20
30
40
C0
C0
C0
40
80
80
ENDCHAR
STARTCHAR sterling
ENCODING 163
SWIDTH 742 0
DWIDTH 10 0
BBX 11 13 0 -4
BITMAP
00C0
0100
0200
0200
0400
0400
0800
0800
3E00
1080
3C80
4F80
4700
ENDCHAR
STARTCHAR section
ENCODING 164
SWIDTH 487 0
DWIDTH 6 0
BBX 9 12 -1 -3
BITMAP
0700
1800
2800
2800
2400
2400
1200
1200
0A00
0C00
0800
F000
ENDCHAR
STARTCHAR bullet
ENCODING 165
SWIDTH 323 0
DWIDTH 4 0
BBX 4 3 0 3
BITMAP
60
70
60
ENDCHAR
STARTCHAR paragraph
ENCODING 166
SWIDTH 456 0
DWIDTH 6 0
BBX 7 12 -1 -4
BITMAP
3E
7C
7C
7C
3C
0C
0C
0C
0C
0C
0C
0C
ENDCHAR
STARTCHAR germandbls
ENCODING 167
SWIDTH 446 0
DWIDTH 6 0
BBX 9 12 -3 -3
BITMAP
0380
0480
0480
0B00
0B00
0900
0900
1900
1600
1000
2000
E000
ENDCHAR
STARTCHAR registered
ENCODING 168
SWIDTH 796 0
DWIDTH 10 0
BBX 10 9 0 0
BITMAP
1E00
7F80
5280
9240
9C40
9440
9280
7B80
1E00
ENDCHAR
STARTCHAR copyright
ENCODING 169
SWIDTH 773 0
DWIDTH 10 0
BBX 10 9 1 0
BITMAP
1E00
7F80
7280
A040
A040
A040
B080
5C80
3F00
ENDCHAR
STARTCHAR trademark
ENCODING 170
SWIDTH 996 0
DWIDTH 13 0
BBX 13 6 0 3
BITMAP
FF18
2B30
22B0
22D0
22D0
7738
ENDCHAR
STARTCHAR acute
ENCODING 171
SWIDTH 339 0
DWIDTH 4 0
BBX 3 2 2 7
BITMAP
40
40
ENDCHAR
STARTCHAR dieresis
ENCODING 172
SWIDTH 339 0
DWIDTH 4 0
BBX 4 1 1 6
BITMAP
50
ENDCHAR
STARTCHAR AE
ENCODING 174
SWIDTH 965 0
DWIDTH 13 0
BBX 14 8 -1 0
BITMAP
01FC
0280
0488
09F0
0F00
1100
2108
6338
ENDCHAR
STARTCHAR Oslash
ENCODING 175
SWIDTH 806 0
DWIDTH 10 0
BBX 10 8 1 0
BITMAP
1E00
2300
6480
4480
4880
5180
6100
7E00
ENDCHAR
STARTCHAR plusminus
ENCODING 177
SWIDTH 679 0
DWIDTH 9 0
BBX 9 10 0 0
BITMAP
0800
0800
0800
0800
7F00
0800
0800
0800
0000
7F00
ENDCHAR
STARTCHAR yen
ENCODING 180
SWIDTH 509 0
DWIDTH 7 0
BBX 9 9 0 0
BITMAP
7300
2200
7F00
1800
FE00
1000
1000
3000
3000
ENDCHAR
STARTCHAR mu
ENCODING 181
SWIDTH 509 0
DWIDTH 7 0
BBX 8 9 -1 -3
BITMAP
12
12
22
24
25
7E
40
40
C0
ENDCHAR
STARTCHAR ordfeminine
ENCODING 187
SWIDTH 265 0
DWIDTH 3 0
BBX 4 3 1 5
BITMAP
60
A0
E0
ENDCHAR
STARTCHAR ordmasculine
ENCODING 188
SWIDTH 265 0
DWIDTH 3 0
BBX 3 3 1 5
BITMAP
E0
A0
40
ENDCHAR
STARTCHAR ae
ENCODING 190
SWIDTH 583 0
DWIDTH 8 0
BBX 8 6 0 0
BITMAP
1F
6D
4A
9C
90
EC
ENDCHAR
STARTCHAR oslash
ENCODING 191
SWIDTH 403 0
DWIDTH 5 0
BBX 5 6 1 0
BITMAP
38
D0
B0
D0
A0
C0
ENDCHAR
STARTCHAR questiondown
ENCODING 192
SWIDTH 403 0
DWIDTH 5 0
BBX 5 9 0 -3
BITMAP
10
00
10
20
60
C0
80
80
70
ENDCHAR
STARTCHAR exclamdown
ENCODING 193
SWIDTH 297 0
DWIDTH 4 0
BBX 4 9 0 -3
BITMAP
20
00
20
20
40
40
40
40
40
ENDCHAR
STARTCHAR logicalnot
ENCODING 194
SWIDTH 679 0
DWIDTH 9 0
BBX 8 4 0 2
BITMAP
7F
01
01
01
ENDCHAR
STARTCHAR guillemotleft
ENCODING 199
SWIDTH 446 0
DWIDTH 6 0
BBX 5 6 1 0
BITMAP
28
50
50
90
50
50
ENDCHAR
STARTCHAR guillemotright
ENCODING 200
SWIDTH 446 0
DWIDTH 6 0
BBX 5 6 1 0
BITMAP
50
50
28
50
50
A0
ENDCHAR
STARTCHAR ellipsis
ENCODING 201
SWIDTH 1017 0
DWIDTH 13 0
BBX 11 1 1 0
BITMAP
4440
ENDCHAR
STARTCHAR Agrave
ENCODING 203
SWIDTH 693 0
DWIDTH 9 0
BBX 10 12 -1 0
BITMAP
0100
0080
0000
0100
0300
0300
0500
0900
1F00
1100
2100
6380
ENDCHAR
STARTCHAR Atilde
ENCODING 204
SWIDTH 693 0
DWIDTH 9 0
BBX 11 11 -1 0
BITMAP
0300
01C0
0000
0100
0300
0500
0900
1F00
1100
2100
6380
ENDCHAR
STARTCHAR Otilde
ENCODING 205
SWIDTH 819 0
DWIDTH 11 0
BBX 9 11 1 0
BITMAP
0D00
1600
0000
1E00
6100
4080
8080
8080
8100
4300
3C00
ENDCHAR
STARTCHAR OE
ENCODING 206
SWIDTH 1049 0
DWIDTH 14 0
BBX 13 8 1 0
BITMAP
1FF0
6100
C300
83E0
8200
8200
4210
3F60
ENDCHAR
STARTCHAR oe
ENCODING 207
SWIDTH 581 0
DWIDTH 8 0
BBX 8 6 0 0
BITMAP
37
49
8A
8C
98
EE
ENDCHAR
STARTCHAR endash
ENCODING 208
SWIDTH 591 0
DWIDTH 8 0
BBX 8 1 0 2
BITMAP
7E
ENDCHAR
STARTCHAR emdash
ENCODING 209
SWIDTH 814 0
DWIDTH 11 0
BBX 9 1 1 3
BITMAP
FF80
ENDCHAR
STARTCHAR quotedblleft
ENCODING 210
SWIDTH 509 0
DWIDTH 7 0
BBX 5 2 3 5
BITMAP
A0
A0
ENDCHAR
STARTCHAR quotedblright
ENCODING 211
SWIDTH 509 0
DWIDTH 7 0
BBX 6 3 1 5
BITMAP
24
24
48
ENDCHAR
STARTCHAR quoteleft
ENCODING 212
SWIDTH 297 0
DWIDTH 4 0
BBX 3 3 2 5
BITMAP
40
40
40
ENDCHAR
STARTCHAR quoteright
ENCODING 213
SWIDTH 273 0
DWIDTH 4 0
BBX 3 3 1 5
BITMAP
20
20
40
ENDCHAR
STARTCHAR divide
ENCODING 214
SWIDTH 680 0
DWIDTH 9 0
BBX 9 7 0 1
BITMAP
0800
0000
0000
7F00
0000
0000
0800
ENDCHAR
STARTCHAR ydieresis
ENCODING 216
SWIDTH 437 0
DWIDTH 6 0
BBX 7 11 -1 -4
BITMAP
14
24
54
14
18
10
10
10
20
20
60
ENDCHAR
STARTCHAR Ydieresis
ENCODING 217
SWIDTH 653 0
DWIDTH 8 0
BBX 10 10 1 0
BITMAP
1200
0000
4100
2200
2400
3800
1000
1000
2000
7800
ENDCHAR
STARTCHAR fraction
ENCODING 218
SWIDTH 191 0
DWIDTH 2 0
BBX 10 9 -3 0
BITMAP
0080
0100
0200
0200
0400
0800
1000
2000
4000
ENDCHAR
STARTCHAR guilsinglleft
ENCODING 220
SWIDTH 730 0
DWIDTH 9 0
BBX 13 14 -3 -4
BITMAP
03B0
04D0
0480
0480
0FF0
0890
0890
08A0
0920
0930
0900
1100
1200
6C00
ENDCHAR
STARTCHAR guilsinglright
ENCODING 221
SWIDTH 737 0
DWIDTH 10 0
BBX 13 14 -3 -4
BITMAP
03B8
04D0
0490
0490
0FF0
0890
0890
0920
0920
0930
0900
1100
1200
6C00
ENDCHAR
STARTCHAR fi
ENCODING 222
SWIDTH 504 0
DWIDTH 7 0
BBX 10 14 -3 -4
BITMAP
0180
0280
0400
0400
0F80
0480
0500
0500
0900
0980
0800
0800
1000
6000
ENDCHAR
STARTCHAR fl
ENCODING 223
SWIDTH 487 0
DWIDTH 6 0
BBX 10 14 -3 -4
BITMAP
0380
0480
0480
0480
0F80
0480
0900
0900
0900
0980
0800
1000
1000
6000
ENDCHAR
STARTCHAR daggerdbl
ENCODING 224
SWIDTH 508 0
DWIDTH 7 0
BBX 13 14 -3 -4
BITMAP
03B0
04C0
0440
0480
0FC0
0880
0880
0880
0900
0900
0900
1100
1200
6E00
ENDCHAR
STARTCHAR periodcentered
ENCODING 225
SWIDTH 297 0
DWIDTH 4 0
BBX 2 1 1 4
BITMAP
40
ENDCHAR
STARTCHAR quotesinglbase
ENCODING 226
SWIDTH 297 0
DWIDTH 4 0
BBX 3 2 0 0
BITMAP
20
20
ENDCHAR
STARTCHAR quotedblbase
ENCODING 227
SWIDTH 509 0
DWIDTH 7 0
BBX 6 4 0 -2
BITMAP
48
48
48
80
ENDCHAR
STARTCHAR perthousand
ENCODING 228
SWIDTH 1017 0
DWIDTH 13 0
BBX 14 9 0 0
BITMAP
7000
5200
9400
9800
AB38
74A8
14C8
2548
0730
ENDCHAR
STARTCHAR Acircumflex
ENCODING 229
SWIDTH 693 0
DWIDTH 9 0
BBX 10 12 -1 0
BITMAP
0180
0280
0000
0100
0300
0700
0500
0900
1F00
1100
2100
6380
ENDCHAR
STARTCHAR Ecircumflex
ENCODING 230
SWIDTH 662 0
DWIDTH 9 0
BBX 10 12 -1 0
BITMAP
0300
0300
0500
0000
1F80
0800
1800
1F00
1000
1000
1080
7F80
ENDCHAR
STARTCHAR Aacute
ENCODING 231
SWIDTH 693 0
DWIDTH 9 0
BBX 10 11 -1 0
BITMAP
0080
0000
0000
0100
0300
0500
0900
1F00
1100
2100
6380
ENDCHAR
STARTCHAR Edieresis
ENCODING 232
SWIDTH 662 0
DWIDTH 9 0
BBX 10 10 -1 0
BITMAP
0580
0000
1F80
0800
1800
1F00
1000
1000
1080
7F80
ENDCHAR
STARTCHAR Egrave
ENCODING 233
SWIDTH 662 0
DWIDTH 9 0
BBX 10 12 -1 0
BITMAP
0200
0200
0000
0000
1F80
0800
1800
1F00
1000
1000
1080
7F80
ENDCHAR
STARTCHAR Iacute
ENCODING 234
SWIDTH 355 0
DWIDTH 5 0
BBX 6 11 0 0
BITMAP
08
00
00
18
10
10
30
20
20
20
70
ENDCHAR
STARTCHAR Icircumflex
ENCODING 235
SWIDTH 355 0
DWIDTH 5 0
BBX 6 12 0 0
BITMAP
08
18
24
00
18
10
10
30
20
20
20
70
ENDCHAR
STARTCHAR Idieresis
ENCODING 236
SWIDTH 355 0
DWIDTH 5 0
BBX 7 10 -1 0
BITMAP
12
00
1E
18
18
10
10
30
30
70
ENDCHAR
STARTCHAR Igrave
ENCODING 237
SWIDTH 355 0
DWIDTH 5 0
BBX 6 12 0 0
BITMAP
10
10
00
00
18
10
10
30
20
20
20
70
ENDCHAR
STARTCHAR Oacute
ENCODING 238
SWIDTH 819 0
DWIDTH 11 0
BBX 9 11 1 0
BITMAP
0200
0200
0000
1E00
6100
4080
8080
8080
8100
4300
3C00
ENDCHAR
STARTCHAR Ocircumflex
ENCODING 239
SWIDTH 819 0
DWIDTH 11 0
BBX 9 12 1 0
BITMAP
0600
0600
0A00
0000
1E00
6100
4080
8080
8080
8100
4300
3C00
ENDCHAR
STARTCHAR Ograve
ENCODING 241
SWIDTH 819 0
DWIDTH 11 0
BBX 9 12 1 0
BITMAP
0400
0400
0000
0000
1E00
6100
4080
8080
8080
8100
4300
3C00
ENDCHAR
STARTCHAR Uacute
ENCODING 242
SWIDTH 748 0
DWIDTH 10 0
BBX 11 11 0 0
BITMAP
0100
0200
0000
79C0
2080
2080
6080
6100
4100
6100
3600
ENDCHAR
STARTCHAR Ucircumflex
ENCODING 243
SWIDTH 748 0
DWIDTH 10 0
BBX 11 12 0 0
BITMAP
0300
0500
0000
0000
79C0
2080
2080
6080
6100
4100
6100
3600
ENDCHAR
STARTCHAR Ugrave
ENCODING 244
SWIDTH 748 0
DWIDTH 10 0
BBX 11 12 0 0
BITMAP
0400
0400
0200
0000
79C0
2080
2080
6080
6100
4100
6100
3600
ENDCHAR
STARTCHAR dotlessi
ENCODING 245
SWIDTH 258 0
DWIDTH 3 0
BBX 3 6 0 0
BITMAP
20
40
40
40
60
40
ENDCHAR
STARTCHAR circumflex
ENCODING 246
SWIDTH 339 0
DWIDTH 4 0
BBX 5 2 0 7
BITMAP
10
28
ENDCHAR
STARTCHAR tilde
ENCODING 247
SWIDTH 339 0
DWIDTH 4 0
BBX 5 2 1 6
BITMAP
C0
B0
ENDCHAR
STARTCHAR macron
ENCODING 248
SWIDTH 339 0
DWIDTH 4 0
BBX 5 1 1 7
BITMAP
F0
ENDCHAR
STARTCHAR breve
ENCODING 249
SWIDTH 339 0
DWIDTH 4 0
BBX 5 1 1 6
BITMAP
60
ENDCHAR
STARTCHAR dotaccent
ENCODING 250
SWIDTH 339 0
DWIDTH 4 0
BBX 2 1 2 6
BITMAP
40
ENDCHAR
STARTCHAR ring
ENCODING 251
SWIDTH 339 0
DWIDTH 4 0
BBX 3 2 2 6
BITMAP
E0
E0
ENDCHAR
STARTCHAR cedilla
ENCODING 252
SWIDTH 339 0
DWIDTH 4 0
BBX 3 3 0 -3
BITMAP
20
20
E0
ENDCHAR
STARTCHAR hungarumlaut
ENCODING 253
SWIDTH 339 0
DWIDTH 4 0
BBX 5 2 1 6
BITMAP
70
50
ENDCHAR
STARTCHAR ogonek
ENCODING 254
SWIDTH 339 0
DWIDTH 4 0
BBX 4 4 0 -3
BITMAP
80
80
80
60
ENDCHAR
STARTCHAR caron
ENCODING 255
SWIDTH 339 0
DWIDTH 4 0
BBX 5 2 1 6
BITMAP
50
60
ENDCHAR
ENDFONT
